<?xml version="1.0" standalone="no"?>
<!DOCTYPE svg PUBLIC "-//W3C//DTD SVG 20010904//EN"
 "http://www.w3.org/TR/2001/REC-SVG-20010904/DTD/svg10.dtd">
<svg version="1.0" xmlns="http://www.w3.org/2000/svg"
 width="395.000000pt" height="395.000000pt" viewBox="0 0 395.000000 395.000000"
 preserveAspectRatio="xMidYMid meet">
<metadata>
Created by potrace 1.14, written by Peter Selinger 2001-2017
</metadata>
<g transform="translate(0.000000,395.000000) scale(0.100000,-0.100000)"
fill="#000000" stroke="none">
<path d="M1754 3830 c-40 -3 -69 -11 -82 -23 -22 -20 -74 -26 -94 -10 -24 20
-120 0 -248 -50 -84 -32 -120 -50 -120 -57 0 -4 -12 -11 -26 -14 -25 -7 -37
-14 -74 -48 -10 -9 -21 -14 -24 -10 -3 3 -6 0 -6 -6 0 -7 -5 -12 -10 -12 -6 0
-22 -11 -35 -24 -14 -14 -41 -37 -62 -53 -54 -41 -136 -130 -154 -168 -9 -17
-24 -63 -34 -101 -19 -74 -20 -79 -31 -164 -3 -30 -13 -77 -21 -105 -15 -49
-20 -182 -11 -280 3 -32 -1 -61 -10 -80 -16 -33 -24 -117 -11 -125 5 -3 10
-30 13 -60 2 -30 10 -68 16 -85 7 -16 14 -55 15 -85 1 -30 3 -65 4 -78 0 -13
4 -21 9 -19 4 3 7 -16 6 -41 0 -26 3 -52 8 -59 5 -7 12 -27 14 -45 4 -31 12
-65 22 -98 2 -8 6 -125 8 -260 6 -420 6 -416 32 -438 12 -11 22 -23 22 -27 0
-11 70 -127 92 -151 12 -14 21 -42 24 -75 6 -72 28 -95 97 -98 28 -1 54 -6 55
-12 2 -5 10 -9 18 -9 8 0 13 -3 12 -7 -4 -10 53 -124 68 -138 5 -5 23 -28 39
-50 16 -22 35 -46 42 -53 7 -7 13 -21 13 -31 0 -10 3 -21 6 -24 4 -4 8 -26 10
-49 2 -24 7 -50 11 -58 3 -8 8 -26 10 -40 16 -117 67 -180 156 -192 12 -2 28
-7 35 -11 6 -5 12 -5 12 -1 0 3 10 0 23 -8 31 -21 83 -36 142 -42 28 -3 66 -9
85 -13 19 -4 127 -7 240 -6 178 1 260 7 345 27 82 18 122 31 135 41 8 7 25 16
38 20 60 18 105 98 116 206 3 24 5 44 6 44 3 0 10 43 12 73 1 18 6 35 11 39 5
3 5 8 -2 12 -6 4 3 22 24 46 19 22 35 45 35 52 0 7 9 17 20 23 11 6 20 17 20
25 0 8 4 15 8 15 4 0 14 16 21 35 7 19 17 35 23 35 6 0 8 3 5 7 -4 3 -2 12 4
20 6 7 9 13 6 13 -3 0 9 16 27 35 19 19 37 35 41 35 5 0 36 28 70 63 35 34 74
70 88 79 13 9 28 30 32 45 3 15 12 35 20 43 7 8 20 42 30 75 9 33 20 71 23 85
16 55 2 397 -16 410 -9 6 -9 40 -1 55 6 10 4 108 -3 135 -2 8 -14 35 -27 59
-13 24 -19 46 -14 50 4 3 9 13 11 21 2 8 8 17 13 18 5 2 7 8 3 13 -3 5 0 9 6
9 7 0 10 6 7 13 -2 6 5 27 15 45 11 19 20 62 23 104 3 39 7 73 10 76 2 3 -3
18 -13 34 -14 25 -15 30 -2 38 11 7 12 14 2 34 -9 20 -9 25 1 23 6 -1 11 6 9
16 -2 9 2 17 8 17 6 0 9 4 6 8 -3 5 2 18 12 28 10 11 18 40 20 67 3 40 -2 56
-24 89 -23 33 -28 51 -31 116 -1 42 -5 83 -9 92 -7 18 -14 67 -16 133 -1 26
-6 47 -10 47 -4 0 -7 3 -6 8 1 7 -11 127 -17 167 -4 23 -35 85 -35 70 -1 -5
-10 10 -22 35 -11 25 -27 49 -34 53 -8 4 -14 14 -14 22 0 7 -3 15 -7 17 -5 2
-25 25 -47 51 -21 26 -40 46 -43 43 -7 -7 -103 98 -103 113 0 8 -3 12 -6 8 -6
-5 -28 10 -66 46 -10 9 -18 14 -18 11 0 -4 -6 -1 -14 5 -16 13 -134 54 -221
77 -73 20 -143 26 -151 13 -8 -14 -86 -10 -118 6 -33 18 -228 17 -246 -1 -5
-5 -13 -44 -15 -85 -3 -41 -8 -83 -10 -95 -5 -22 -44 -72 -46 -58 -1 5 -3 24
-5 43 -2 19 -8 50 -14 69 -5 19 -7 39 -4 43 2 4 0 10 -5 14 -6 3 -8 12 -4 20
3 8 0 15 -6 15 -6 0 -11 7 -11 15 0 8 -4 15 -10 15 -5 0 -11 0 -12 0 -2 1 -19
4 -38 8 -19 4 -63 5 -96 2z m-119 -1604 c63 -24 144 -69 173 -97 28 -27 32
-36 26 -63 -9 -42 -8 -41 -67 -85 -62 -45 -113 -73 -130 -70 -6 2 -35 -1 -63
-5 -64 -9 -213 16 -261 44 -61 36 -131 101 -142 131 -9 27 -7 30 65 85 41 31
81 57 89 58 8 1 17 5 20 8 8 8 266 3 290 -6z m1053 -2 c37 -9 75 -23 84 -32 9
-8 38 -17 63 -19 25 -3 45 -10 45 -16 0 -26 -56 -101 -108 -143 -90 -74 -103
-77 -297 -75 -93 1 -185 4 -203 7 -20 4 -51 23 -75 45 -22 22 -43 39 -47 39
-11 0 -2 61 11 76 23 27 147 88 224 109 99 28 213 31 303 9z"/>
</g>
</svg>
